<svg xmlns="http://www.w3.org/2000/svg" viewBox="0 170 1200 410" font-family="'Segoe UI', 'Helvetica Neue', Arial, sans-serif">
  <defs>
    <marker id="ahG" viewBox="0 0 10 10" refX="8" refY="5" markerWidth="7" markerHeight="7" orient="auto-start-reverse">
      <path d="M0 0 L10 5 L0 10 z" fill="#22c55e"/>
    </marker>
    <marker id="ahB" viewBox="0 0 10 10" refX="8" refY="5" markerWidth="7" markerHeight="7" orient="auto-start-reverse">
      <path d="M0 0 L10 5 L0 10 z" fill="#4a9eed"/>
    </marker>
    <marker id="ahP" viewBox="0 0 10 10" refX="8" refY="5" markerWidth="7" markerHeight="7" orient="auto-start-reverse">
      <path d="M0 0 L10 5 L0 10 z" fill="#8b5cf6"/>
    </marker>
  </defs>

  <!-- ===== OpenCASCADE (green / open) ===== -->
  <rect x="100" y="210" width="200" height="90" rx="12" fill="#b2f2bb" stroke="#22c55e" stroke-width="2.5"/>
  <text x="200" y="251" text-anchor="middle" font-size="19" font-weight="600" fill="#1e1e1e">OpenCASCADE</text>
  <text x="200" y="274" text-anchor="middle" font-size="15" fill="#15803d">(OCCT)</text>
  <text x="200" y="194" text-anchor="middle" font-size="16" font-weight="600" fill="#15803d">open source</text>

  <line x1="195" y1="300" x2="130" y2="475" stroke="#22c55e" stroke-width="2.5" marker-end="url(#ahG)"/>
  <line x1="205" y1="300" x2="270" y2="475" stroke="#22c55e" stroke-width="2.5" marker-end="url(#ahG)"/>

  <rect x="55" y="480" width="140" height="80" rx="12" fill="#d3f9d8" stroke="#22c55e" stroke-width="2.5"/>
  <text x="125" y="526" text-anchor="middle" font-size="18" fill="#1e1e1e">CadQuery</text>
  <rect x="205" y="480" width="140" height="80" rx="12" fill="#d3f9d8" stroke="#22c55e" stroke-width="2.5"/>
  <text x="275" y="526" text-anchor="middle" font-size="18" fill="#1e1e1e">FreeCAD</text>

  <!-- ===== Parasolid (blue / proprietary) ===== -->
  <rect x="500" y="210" width="200" height="90" rx="12" fill="#a5d8ff" stroke="#2563eb" stroke-width="2.5"/>
  <text x="600" y="262" text-anchor="middle" font-size="22" font-weight="600" fill="#1e1e1e">Parasolid</text>
  <text x="600" y="194" text-anchor="middle" font-size="16" fill="#757575">proprietary</text>

  <line x1="585" y1="300" x2="450" y2="475" stroke="#4a9eed" stroke-width="2.5" marker-end="url(#ahB)"/>
  <line x1="600" y1="300" x2="600" y2="475" stroke="#4a9eed" stroke-width="2.5" marker-end="url(#ahB)"/>
  <line x1="615" y1="300" x2="750" y2="475" stroke="#4a9eed" stroke-width="2.5" marker-end="url(#ahB)"/>

  <rect x="375" y="480" width="140" height="80" rx="12" fill="#dbe4ff" stroke="#2563eb" stroke-width="2.5"/>
  <text x="445" y="526" text-anchor="middle" font-size="18" fill="#1e1e1e">NX</text>
  <rect x="530" y="480" width="140" height="80" rx="12" fill="#dbe4ff" stroke="#2563eb" stroke-width="2.5"/>
  <text x="600" y="526" text-anchor="middle" font-size="18" fill="#1e1e1e">SolidWorks</text>
  <rect x="685" y="480" width="140" height="80" rx="12" fill="#dbe4ff" stroke="#2563eb" stroke-width="2.5"/>
  <text x="755" y="526" text-anchor="middle" font-size="18" fill="#1e1e1e">Onshape</text>

  <!-- ===== ACIS (purple / proprietary) ===== -->
  <rect x="900" y="210" width="200" height="90" rx="12" fill="#d0bfff" stroke="#8b5cf6" stroke-width="2.5"/>
  <text x="1000" y="262" text-anchor="middle" font-size="22" font-weight="600" fill="#1e1e1e">ACIS</text>
  <text x="1000" y="194" text-anchor="middle" font-size="16" fill="#757575">proprietary</text>

  <line x1="995" y1="300" x2="925" y2="475" stroke="#8b5cf6" stroke-width="2.5" marker-end="url(#ahP)"/>
  <line x1="1005" y1="300" x2="1075" y2="475" stroke="#8b5cf6" stroke-width="2.5" marker-end="url(#ahP)"/>

  <rect x="855" y="480" width="140" height="80" rx="12" fill="#e5dbff" stroke="#8b5cf6" stroke-width="2.5"/>
  <text x="925" y="526" text-anchor="middle" font-size="18" fill="#1e1e1e">Fusion 360</text>
  <rect x="1005" y="480" width="140" height="80" rx="12" fill="#e5dbff" stroke="#8b5cf6" stroke-width="2.5"/>
  <text x="1075" y="526" text-anchor="middle" font-size="18" fill="#1e1e1e">Cubit</text>

</svg>
